<svg id="Слой_1" data-name="Слой 1" xmlns="http://www.w3.org/2000/svg" viewBox="0 0 780.72 243.28"><defs><style>.cls-1{fill:none;stroke:#666;stroke-miterlimit:10;}</style></defs><title>План помещений 2</title><rect class="cls-1" x="165.68" y="96.96" width="80.22" height="61.43"/><line class="cls-1" x1="245.9" y1="96.96" x2="322.98" y2="96.96"/><line class="cls-1" x1="322.98" y1="96.96" x2="322.98" y2="120.63"/><line class="cls-1" x1="257.05" y1="120.63" x2="322.98" y2="120.63"/><line class="cls-1" x1="257.05" y1="158.39" x2="257.05" y2="120.63"/><line class="cls-1" x1="245.9" y1="158.39" x2="257.05" y2="158.39"/><line class="cls-1" x1="322.98" y1="120.63" x2="322.98" y2="158.39"/><line class="cls-1" x1="257.05" y1="158.39" x2="322.98" y2="158.39"/><rect class="cls-1" x="322.98" y="96.96" width="52.83" height="61.43"/><rect class="cls-1" x="375.81" y="96.96" width="48.13" height="61.43"/><rect class="cls-1" x="430.89" y="96.96" width="26.61" height="61.43"/><rect class="cls-1" x="457.49" y="96.96" width="37.96" height="61.43"/><rect class="cls-1" x="495.45" y="96.96" width="54.49" height="39.52"/><rect class="cls-1" x="495.45" y="136.48" width="41.05" height="21.91"/><rect class="cls-1" x="536.51" y="136.48" width="24.91" height="21.91"/><rect class="cls-1" x="549.94" y="96.96" width="11.48" height="39.52"/><rect class="cls-1" x="561.42" y="96.96" width="67.7" height="61.43"/><rect class="cls-1" x="629.11" y="96.96" width="39.65" height="61.43"/><rect class="cls-1" x="668.77" y="96.96" width="39.39" height="61.43"/><rect class="cls-1" x="697.2" y="146.65" width="10.96" height="11.74"/><rect class="cls-1" x="665.96" y="0.5" width="114.26" height="55.17"/><rect class="cls-1" x="712.04" y="55.67" width="11.05" height="8.8"/><rect class="cls-1" x="712.04" y="55.67" width="61.21" height="41.28"/><rect class="cls-1" x="712.04" y="96.96" width="61.21" height="78.26"/><rect class="cls-1" x="712.04" y="175.22" width="61.21" height="46.43"/><rect class="cls-1" x="712.04" y="221.65" width="61.21" height="12.91"/><rect class="cls-1" x="712.04" y="234.57" width="61.21" height="8.22"/><polyline class="cls-1" points="640.92 172.87 708.16 172.87 708.16 242.78 310.85 242.78 310.85 172.87 590.34 172.87"/><rect class="cls-1" x="219.29" y="172.87" width="91.57" height="69.91"/><rect class="cls-1" x="152.57" y="172.87" width="66.72" height="69.91"/><rect class="cls-1" x="97.59" y="158.39" width="54.98" height="84.39"/><rect class="cls-1" x="97.59" y="228.43" width="54.98" height="14.35"/><rect class="cls-1" x="15.22" y="202.61" width="82.37" height="40.17"/><rect class="cls-1" x="0.5" y="202.61" width="14.72" height="20.09"/><rect class="cls-1" x="0.5" y="222.7" width="14.72" height="20.09"/><rect class="cls-1" x="590.34" y="164.65" width="25.34" height="9.78"/><rect class="cls-1" x="615.68" y="164.65" width="25.24" height="9.78"/></svg>